<svg version="1.0" xmlns="http://www.w3.org/2000/svg" width="600.000000pt" height="600.000000pt" viewBox="0 0 600.000000 600.000000" preserveAspectRatio="xMidYMid meet">
  <g transform="translate(0.000000,600.000000) scale(0.050000,-0.050000)" fill="#000000" stroke="none">
    <rect x="0" y="0" width="12000" height="12000" fill="white"/>
    
    <path d="M4661 11689 c-276 -60 -528 -247 -641 -476 -64 -131 -139 -473 -389 -1773 l-124 -650 -609 -10 c-694 -11 -736 -21 -832 -190 -144 -254 41 -512 543 -760 249 -123 660 -276 887 -329 96 -23 109 -33 137 -104 18 -43 65 -107 105 -142 41 -36 100 -110 132 -165 297 -519 572 -697 1080 -698 389 0 584 99 758 385 156 256 288 264 441 25 196 -305 416 -423 789 -422 427 1 700 168 984 600 76 116 148 219 160 230 97 91 127 128 150 183 25 58 46 69 233 127 1080 331 1571 740 1317 1097 -102 144 -142 152 -821 163 l-608 10 -97 510 c-336 1772 -375 1918 -566 2118 -332 349 -737 384 -1289 113 -369 -181 -572 -175 -986 28 -326 159 -489 187 -754 130z m644 -374 c473 -236 755 -241 1209 -23 440 210 735 197 975 -43 120 -119 143 -193 291 -941 78 -395 146 -729 151 -743 6 -20 -402 -25 -1998 -25 l-2006 0 137 685 c168 846 176 875 279 986 248 269 562 303 962 104z m4247 -2844 c135 -185 -572 -554 -1498 -782 -1445 -355 -3168 -321 -4556 90 -856 254 -1427 613 -1141 718 118 44 7162 18 7195 -26z"/>
    <path d="M3840 5592 c-150 -27 -115 -10 -620 -308 -460 -272 -446 -261 -626 -504 -182 -246 -448 -569 -549 -666 l-79 -77 -104 34 c-255 84 -521 1 -609 -187 -63 -138 -62 -899 2 -1177 108 -469 246 -563 689 -470 229 48 267 75 308 218 18 63 35 117 37 120 2 2 68 -23 148 -56 250 -106 421 -139 711 -140 279 0 258 4 1052 -209 222 -59 262 -56 381 32 25 18 125 -27 520 -237 567 -301 850 -445 877 -445 11 0 189 89 396 197 1035 541 952 503 1003 461 89 -72 161 -68 507 29 527 148 568 155 936 173 364 17 443 34 728 158 54 24 99 41 101 38 1 -4 14 -51 28 -106 37 -146 84 -183 293 -229 477 -106 609 -11 724 522 59 276 52 970 -12 1113 -88 197 -445 294 -655 179 l-63 -34 -120 128 c-138 148 -360 424 -542 675 l-126 175 -433 258 c-547 326 -525 316 -710 341 -344 48 -992 -6 -1182 -97 -114 -55 -179 -172 -166 -293 13 -110 46 -118 -337 82 -395 207 -339 207 -754 -5 -188 -96 -349 -178 -357 -181 -8 -4 -6 25 5 64 39 141 -46 297 -192 352 -214 82 -927 124 -1210 72z m924 -152 c253 -39 328 -71 348 -151 31 -123 -127 -276 -208 -202 -84 75 -760 114 -1002 57 -109 -25 -766 -441 -790 -499 -57 -139 58 -104 388 116 166 111 335 216 376 233 145 62 885 53 950 -12 83 -83 -77 -196 -332 -234 -486 -71 -500 -77 -784 -328 -334 -295 -452 -542 -423 -887 29 -353 202 -533 668 -696 394 -137 565 -270 565 -441 0 -162 -59 -166 -517 -35 -445 126 -631 159 -911 159 -255 0 -357 22 -653 141 -194 79 -216 83 -342 71 l-135 -12 -20 75 c-112 432 -110 999 4 1058 142 73 470 444 791 892 107 149 145 185 259 249 74 40 259 149 411 242 463 280 663 310 1357 204z m3204 30 c174 -15 205 -28 587 -256 173 -103 358 -212 410 -242 52 -29 116 -82 143 -118 28 -35 130 -172 228 -304 248 -333 480 -587 610 -670 l109 -70 14 -190 c15 -212 -11 -542 -60 -758 l-32 -142 -134 12 c-121 12 -150 6 -294 -52 -352 -142 -360 -144 -719 -160 -356 -16 -524 -49 -1038 -201 -228 -68 -294 -73 -336 -24 -150 175 52 378 544 546 421 143 588 311 644 644 63 386 -97 672 -617 1103 -72 60 -282 117 -557 153 -264 35 -370 90 -370 193 0 77 76 92 480 94 451 2 431 9 836 -260 319 -213 388 -239 400 -154 6 43 -533 428 -702 502 -196 85 -937 72 -1063 -20 -107 -78 -259 51 -224 191 26 102 191 151 635 191 184 16 223 15 506 -8z m-1820 -233 c-6 -9 4 -11 21 -5 17 7 31 2 31 -10 0 -12 9 -22 20 -22 28 0 100 -65 100 -89 0 -25 -94 -89 -230 -157 l-100 -50 -190 97 c-265 135 -256 124 -145 184 122 67 280 120 306 104 11 -6 19 -5 17 5 -7 42 8 42 91 2 49 -24 85 -50 79 -59z m-494 -290 l212 -114 -224 -111 -225 -112 -208 109 c-115 60 -202 116 -194 124 21 21 391 216 411 217 8 0 111 -51 228 -113z m1109 -11 c108 -58 197 -110 197 -116 0 -6 -90 -56 -200 -110 l-201 -99 -212 106 c-116 58 -205 111 -198 119 28 27 362 202 389 203 15 1 116 -46 225 -103z m-1503 -406 c-9 -11 -107 -64 -217 -119 l-201 -98 -76 34 c-42 19 -138 69 -214 112 l-138 77 98 49 c54 27 139 60 188 73 50 13 113 41 140 62 l50 38 194 -104 c122 -65 187 -111 176 -124z m942 125 c241 -128 242 -113 -7 -238 l-205 -103 -205 107 c-249 130 -248 117 -10 238 238 121 192 121 427 -4z m908 45 c7 -11 63 -34 126 -51 126 -34 304 -109 304 -127 0 -7 -91 -59 -201 -117 l-200 -105 -115 58 c-63 32 -162 85 -221 118 l-106 59 166 91 c170 93 225 110 247 74z m-2890 -972 l-10 -842 -236 84 c-492 178 -657 465 -513 894 78 231 455 628 643 676 47 12 95 25 106 28 11 4 20 6 20 4 0 -1 -4 -381 -10 -844z m3632 803 c98 -42 458 -362 528 -472 225 -349 157 -788 -151 -980 -52 -32 -444 -179 -478 -179 -5 0 -13 374 -16 830 -6 908 -13 855 117 801z m-2232 -171 c243 -122 244 -108 -3 -234 l-203 -104 -206 104 c-114 57 -207 109 -208 114 0 8 389 213 415 219 3 0 96 -44 205 -99z m1150 -5 c115 -57 210 -110 210 -118 0 -8 -94 -62 -209 -120 l-209 -106 -210 109 c-116 61 -212 116 -212 123 0 13 377 215 405 216 8 1 109 -46 225 -104z m-2200 -41 l200 -104 6 -285 c3 -157 -2 -285 -10 -284 -9 0 -106 47 -216 105 l-200 104 -6 285 c-3 157 2 285 10 284 9 0 106 -47 216 -105z m3050 -193 l0 -279 -175 -91 c-270 -141 -245 -158 -245 167 l0 282 195 99 c107 54 202 99 210 100 8 1 15 -125 15 -278z m-1216 -183 c-8 -7 -105 -60 -215 -117 l-201 -105 -179 90 c-294 149 -292 132 -38 260 l219 110 214 -112 c118 -63 208 -119 200 -126z m-1274 76 l200 -104 6 -277 c3 -162 -2 -274 -13 -270 -10 4 -110 52 -221 106 l-202 100 0 275 c0 152 7 276 15 275 8 0 105 -47 215 -105z m1930 -174 l0 -280 -200 -100 c-109 -55 -204 -100 -210 -100 -5 0 -10 124 -10 275 l0 275 205 104 c113 57 207 104 210 105 3 0 5 -125 5 -279z m-5315 5 c-64 -483 25 -1138 187 -1376 59 -87 64 -79 -68 -107 -394 -83 -514 152 -514 1008 0 515 36 587 295 589 l115 1 -15 -115z m8744 56 c192 -181 112 -1351 -104 -1522 -103 -81 -496 -23 -398 59 154 127 261 838 207 1369 l-16 158 130 -9 c102 -6 142 -18 181 -55z m-3989 -346 l0 -286 -210 -104 c-116 -58 -219 -105 -230 -105 -12 0 -20 107 -20 275 l0 276 225 113 c124 63 227 114 230 115 3 0 5 -127 5 -284z m-790 157 l200 -107 6 -273 5 -273 -65 28 c-36 15 -133 64 -216 109 l-150 81 -6 271 c-3 150 2 272 10 271 9 0 106 -48 216 -107z m-1011 -181 l71 -45 -6 -274 -6 -274 -204 109 -204 108 -6 283 -5 283 144 -73 c80 -40 177 -93 216 -117z m2921 -111 l0 -280 -200 -100 c-109 -55 -204 -100 -210 -100 -5 0 -10 124 -10 275 l0 276 205 103 c113 57 207 104 210 105 3 0 5 -125 5 -279z m-2490 -105 l210 -104 0 -286 0 -287 -220 113 -220 112 0 279 c0 153 4 278 10 278 5 0 104 -47 220 -105z m1950 -162 c0 -229 -5 -271 -35 -298 -33 -29 -392 -215 -415 -215 -5 0 -10 126 -10 280 l0 280 215 109 c118 60 222 109 230 110 8 1 15 -119 15 -266z m-1375 -133 l215 -110 0 -286 0 -285 -225 119 -225 120 -6 283 c-3 155 2 280 11 276 9 -4 112 -56 230 -117z m795 83 c0 -9 -6 -22 -13 -29 -13 -14 -11 -277 4 -397 11 -90 9 -92 -226 -213 l-205 -106 0 276 0 276 205 104 c216 109 235 116 235 89z m-1940 -203 l200 -100 0 -250 0 -249 -50 23 c-42 19 -50 36 -50 106 0 120 -132 308 -273 387 -30 16 -65 183 -39 183 7 0 103 -45 212 -100z m3047 4 c-17 -75 -48 -108 -85 -94 -17 7 -25 6 -18 -1 7 -7 -19 -41 -58 -75 -102 -90 -164 -198 -181 -317 -30 -205 -65 -139 -65 121 l0 242 195 98 c210 105 232 108 212 26z m-2477 -291 l200 -106 6 -263 c3 -145 2 -264 -2 -264 -4 0 -103 50 -221 111 l-213 112 0 258 c0 143 7 259 15 259 8 -1 105 -49 215 -107z m1930 -153 l0 -260 -220 -110 -220 -110 0 260 0 260 215 109 c118 60 217 109 220 110 3 1 5 -116 5 -259z m-568 -533 c-10 -26 -393 -227 -432 -227 -14 0 -19 87 -16 255 l6 255 220 113 220 113 6 -242 c3 -133 1 -253 -4 -267z m-914 449 c39 -24 79 -53 87 -65 8 -12 15 -14 15 -5 0 9 52 -11 115 -45 l115 -61 3 -261 4 -260 -219 114 -218 113 0 257 c0 141 6 257 13 257 7 0 45 -20 85 -44z"/>
  </g>
</svg>
